<?xml version="1.0" encoding="utf-8"?>
<svg xmlns="http://www.w3.org/2000/svg" viewBox="39.29 -59.0881 53.7211 50.8359" width="53.7211px" height="50.8359px"><g transform="matrix(0.09869100898504257, 0, 0, 0.09869100898504257, 15.801525115966811, -84.21708679199213)" id="object-0" style=""><g fill="#1a838e"><path d="M393.2 756.3 c-1.8 -2.1 -3.2 -4.5 -3.2 -5.3 0 -0.9 -0.5 -2.1 -1.1 -2.7 -0.7 -0.7 -1 -20 -0.9 -59.9 0 -46 -0.3 -59.4 -1.2 -60.7 -1.2 -1.5 -6.3 -1.7 -62.8 -2 -33.8 -0.2 -63.1 -0.7 -65 -1.2 -7.7 -1.8 -16.6 -10.4 -19.7 -19.2 -1 -3 -1.3 -21.6 -1.3 -92.3 0 -70.7 0.3 -89.3 1.3 -92.3 3.1 -8.8 11 -16.5 19.4 -19 2.5 -0.8 24.6 -1.3 66.3 -1.7 l62.5 -0.5 0.2 -61 c0.2 -38.4 0.7 -61.8 1.3 -63.2 0.5 -1.3 1.6 -3.5 2.3 -5 1.1 -2.5 6.6 -8.5 9.8 -10.8 2.2 -1.5 6.1 -3.3 9.4 -4.1 4 -1.1 194.1 -1 198.5 0.1 4 0.9 11.6 4.9 14.6 7.7 7.5 6.8 9 21.3 7.7 75.3 l-0.8 38 -3.2 3.3 c-3.8 4.1 -13.3 17.6 -13.3 19.1 0 0.6 -0.4 1.1 -0.9 1.1 -0.5 0 -1.1 0.8 -1.4 1.8 -0.3 0.9 -1.2 2.8 -2 4.2 -0.8 1.4 -1.9 3.6 -2.5 5 -1 2.5 -2.3 5.5 -5.7 13.5 -0.9 2.2 -2.1 4.8 -2.6 5.7 -0.5 1 -0.9 2.9 -0.9 4.2 0 1.4 -0.4 2.8 -1 3.1 -0.5 0.3 -1 2.1 -1 4 0 1.9 -0.4 3.6 -0.9 3.9 -0.5 0.3 -1.1 2 -1.4 3.8 -0.3 1.8 -1 5.1 -1.7 7.3 -1.5 5.1 -3 11.9 -3.7 16.8 -0.3 2 -0.9 4 -1.4 4.3 -0.5 0.3 -0.9 1.6 -0.9 2.9 0 1.3 -0.4 2.7 -1 3 -0.5 0.3 -1 1.7 -1 3 0 1.3 -0.4 2.7 -1 3 -0.5 0.3 -1 1.4 -1 2.5 0 1.9 -0.6 3.2 -8 18 -8.7 17.3 -12.1 23.5 -13 23.8 -0.6 0.2 -1 0.8 -1 1.3 0 0.6 -2.2 4.3 -5 8.4 -2.7 4.1 -5 7.7 -5 8 0 0.4 -1.3 2.5 -2.8 4.8 -3.8 5.7 -8.6 15.7 -7.8 16.5 0.8 0.7 20 -18.7 26.6 -26.8 2.5 -3 4.7 -5.7 5 -6 0.3 -0.3 2.5 -3 5 -6 2.5 -3 4.7 -5.7 5 -6 0.3 -0.3 2.1 -2.5 4 -5 1.9 -2.5 3.8 -4.6 4.2 -4.8 0.4 -0.2 0.8 -0.9 0.8 -1.4 0 -0.6 1.7 -3.4 3.8 -6.2 4.2 -5.6 6.4 -10.8 5.6 -13.1 -0.4 -0.9 2.3 -5.1 6.7 -10.8 4 -5 14.1 -18.2 22.4 -29.2 23.3 -31.1 40.2 -49.9 55.2 -61.8 5.7 -4.5 7.9 -5.7 10.7 -5.7 3.4 0 3.6 0.2 3.6 3.4 0 2.2 -0.7 4 -1.8 4.8 -3.4 2.5 -18.5 21.3 -25.4 31.7 -3.8 5.7 -10.7 15.4 -15.1 21.4 -4.5 6 -15.6 22 -24.7 35.6 -12.4 18.5 -17.1 24.7 -18.7 24.9 -2.4 0.4 -6 5.1 -10.3 13.5 -1.4 2.6 -2.9 4.7 -3.3 4.7 -0.5 0 -0.5 2.5 -0.2 5.5 0.8 5.9 -0.3 8.5 -3.5 8.5 -1 0 -3.7 3.1 -6.8 7.8 -2.9 4.2 -5.9 8.7 -6.8 9.9 l-1.6 2.3 7.2 -2.5 c10.8 -3.7 22 -5.5 33.6 -5.5 l10.4 0 0 3.5 c0 2 -0.6 3.7 -1.2 3.9 -24.1 6.6 -52.5 20.6 -72.8 35.8 -10.1 7.5 -33.4 29.9 -43.5 41.8 -7.6 9 -33.9 42.6 -36.9 47.3 -1.4 2.1 -2.6 2.7 -5.2 2.7 -3.2 0 -3.4 -0.2 -3.4 -3.5 0 -3.9 2.4 -9.4 12.4 -28 9.8 -18.4 14.8 -28.6 21 -42.7 3 -6.8 8.4 -18.6 12.1 -26.3 11.6 -24.2 15.6 -38.8 15.4 -56.9 0 -9.6 -1.5 -22.7 -1.8 -16.3 -0.2 5.6 -5.1 33.8 -7.2 41.4 -5.3 19.9 -10.8 34.1 -21.3 55.1 -15.4 30.8 -27.8 50.2 -52.1 81.7 -7.2 9.4 -17.3 22.6 -22.5 29.5 -5.1 6.9 -13.1 17.1 -17.7 22.7 -4.6 5.7 -8.3 10.7 -8.3 11.3 0 1.9 -1.7 1 -4.8 -2.7z m83.8 -179.9 c-3.6 -15 -11.4 -30.7 -23.2 -46.6 -4.5 -6 -5.8 -8.6 -5.8 -11.3 0 -3.2 0.2 -3.5 3.1 -3.5 3.9 0 10 4.2 18.6 12.8 7.1 7.1 17 19.9 20.6 26.6 l2.2 4.1 0.3 -4.9 c0.7 -11.3 -3.3 -26.7 -10.1 -38.1 -11.5 -19.6 -32 -32.7 -59.4 -37.8 l-7.3 -1.4 0 4.4 c0 5.8 5.5 33.6 8.7 43.7 4.3 13.8 10.8 25 19.8 34.1 6.7 6.8 33.2 27.1 34.2 26.2 0.1 -0.2 -0.6 -3.9 -1.7 -8.3z m38.5 -116.1 c-2.1 -17.9 -8.2 -38.5 -16.4 -55.8 -5.3 -11.1 -14 -25.7 -16.2 -27.1 -0.5 -0.3 -0.9 -2.3 -0.9 -4.5 0 -3.8 0.1 -3.9 3.3 -3.9 3 0 4.6 1.3 13.4 10.3 5.5 5.6 12.8 14 16.2 18.7 8.1 10.8 16.9 28.9 22.3 45.7 2.4 7.3 4.6 13.2 4.9 13.3 0.8 0 5.5 -16.2 7 -24.5 1.7 -9.5 1.5 -25.5 -0.5 -33.9 -9.2 -38.8 -37.8 -63.6 -86.6 -75.4 -6.9 -1.7 -13.9 -3.3 -15.6 -3.6 l-3.1 -0.5 -0.7 6.7 c-2.2 23.7 1.6 52.8 9.4 71.5 5.7 13.6 12.5 23.3 25.3 36 11 10.9 36.1 32.4 38 32.6 0.5 0.1 0.5 -2.5 0.2 -5.6z"/></g><g fill="#67c2b4"><path d="M415 769 c-0.8 -0.5 -2.9 -1 -4.7 -1 -1.7 0 -3.5 -0.4 -3.8 -1 -0.3 -0.5 -1.3 -1 -2.1 -1 -1.9 0 -10.3 -7.8 -10 -9.3 0.1 -0.7 2.6 -4.2 5.5 -7.7 3 -3.6 9.4 -11.7 14.2 -18 4.8 -6.3 16.4 -21.4 25.7 -33.5 28.6 -37.5 39.9 -54.9 55.8 -86.7 10.5 -21 16 -35.2 21.3 -55.1 3 -11.1 7.1 -37.3 7.9 -50.2 l0.7 -11 2.2 6.5 c3.1 8.9 4.3 18.2 4.3 33.1 0 21 -3.5 34.3 -15.5 59.4 -3.7 7.7 -9.1 19.5 -12.1 26.3 -6.2 14.1 -11.2 24.3 -21 42.7 -8.2 15.3 -12.7 24.6 -12.1 25.2 0.2 0.2 1.2 -0.9 2.3 -2.4 3 -4.7 29.3 -38.3 36.9 -47.3 10.1 -11.9 33.4 -34.3 43.5 -41.8 16.8 -12.6 43.4 -26.5 61.6 -32.3 13.7 -4.4 13.7 -4.3 6.4 -4.7 -12.8 -0.7 -31.7 3.9 -47.2 11.6 -4.3 2.1 -7.8 3.7 -7.8 3.5 0 -0.2 3.9 -5.6 8.6 -11.9 4.7 -6.4 9.9 -13.8 11.6 -16.5 1.6 -2.7 3.4 -5 3.9 -5 0.5 -0.1 1.3 -0.2 1.9 -0.3 0.5 0 1.5 -0.8 2.2 -1.6 1.1 -1.2 1.1 -1.2 -0.4 -0.1 -2.5 1.9 -2.3 0 0.5 -4.6 2 -3.4 2.2 -3.6 2.5 -1.5 0.2 1.2 0.5 2.2 0.7 2.2 1.3 0 7.5 -3.5 7.5 -4.2 0 -0.4 0.9 -0.8 2 -0.8 1.1 0 2 -0.4 2 -1 0 -0.5 1.4 -1 3 -1 1.7 0 3 -0.4 3 -1 0 -0.5 1.1 -1 2.4 -1 1.4 0 2.8 -0.4 3.1 -1 0.3 -0.5 1.9 -1 3.5 -1 1.6 0 3.2 -0.4 3.5 -1 0.3 -0.5 1.7 -1 3 -1 1.3 0 2.7 -0.4 3 -1 0.3 -0.5 1.5 -1 2.6 -1 1 0 2.7 -0.4 3.7 -0.9 0.9 -0.5 2.8 -1.3 4.2 -1.9 1.4 -0.5 4.6 -1.9 7.2 -3.1 2.6 -1.2 5.2 -2.1 5.7 -2.1 0.5 0 3.8 -1.7 7.2 -3.8 3.5 -2.1 7.8 -4.4 9.4 -5.2 1.7 -0.8 3.9 -2.3 4.9 -3.2 1.1 -1 2.6 -1.8 3.3 -1.8 0.7 0 1.3 -0.4 1.3 -0.8 0 -0.4 1.3 -1.6 3 -2.5 1.6 -1 3.5 -2.3 4.2 -3 0.7 -0.7 2.9 -2.4 4.8 -3.7 4.5 -3.1 20.4 -19.1 25 -25 1.9 -2.5 3.8 -4.6 4.2 -4.8 0.4 -0.2 0.8 -0.8 0.8 -1.3 0 -0.6 1.7 -3.6 3.8 -6.7 2.1 -3.1 4.4 -7 5.2 -8.7 0.8 -1.6 2.2 -4.2 3.2 -5.7 1 -1.4 1.8 -3.3 1.8 -4.2 0 -0.9 0.5 -1.6 1 -1.6 0.6 0 1 -1.1 1 -2.4 0 -1.4 0.5 -2.8 1 -3.1 0.6 -0.3 1 -1.7 1 -3 0 -1.3 0.5 -2.7 1 -3 0.6 -0.3 1 -1.7 1 -3 0 -1.3 0.5 -2.7 1 -3 0.6 -0.3 1 -2.2 1 -4.2 0 -5.4 3 -7.5 9.4 -6.7 6.9 0.9 12.9 3.9 17.7 8.8 7.9 8 7.4 0.2 7.1 102.6 -0.3 89 -0.6 97 -3.3 97 -0.4 0 -1.2 1.2 -1.8 2.8 -1.3 2.8 -7.9 8.3 -12.1 10 -8.1 3.2 -10.8 3.3 -71.7 3 -43.9 -0.2 -61.4 0 -61.7 0.8 -0.2 0.6 -0.3 5.4 -0.1 10.6 0.2 5.2 0 32.4 -0.4 60.4 l-0.8 50.9 -2.4 4.4 c-4.2 7.7 -11.8 13.5 -20.4 15.7 -4.6 1.2 -190.7 1.6 -192.5 0.4z"/><path d="M293.8 625.3 c17.2 -0.2 45.1 -0.2 62 0 16.9 0.1 2.8 0.2 -31.3 0.2 -34.1 0 -47.9 -0.1 -30.7 -0.2z"/><path d="M479.4 591.9 c-1.6 -1.7 -9 -7.4 -16.4 -12.7 -30.4 -21.6 -39.2 -35.7 -46.8 -75.3 -1.7 -8.5 -3.3 -18.9 -3.6 -23.1 l-0.7 -7.8 2.8 0 c8.3 0 29.9 5.8 39.8 10.8 21.7 10.7 36.6 30.7 40.4 54.3 0.6 3.5 1.1 13.6 1.1 22.4 l-0.1 16 -3.2 -7.5 c-1.8 -4.1 -4.2 -9.3 -5.4 -11.6 -3.5 -6.6 -13.5 -19.5 -20.6 -26.6 -6.2 -6.2 -15.7 -13.7 -15.7 -12.4 0 0.3 2.6 4.1 5.8 8.4 11.9 16 19.7 31.8 23.2 46.7 1.9 7.9 3.6 21.5 2.8 21.5 -0.2 0 -1.7 -1.4 -3.4 -3.1z"/><path d="M535.6 573.5 c4.3 -7.1 6.4 -9.6 6.4 -7.8 0 0.5 -0.4 1.3 -0.9 1.9 -0.5 0.5 -1.2 2 -1.6 3.3 -0.6 1.8 -0.4 2.2 0.6 1.6 0.8 -0.4 -0.6 1.3 -3.1 3.9 -2.4 2.5 -4.8 4.6 -5.2 4.6 -0.4 0 1.3 -3.4 3.8 -7.5z"/><path d="M561 533 c0 -1.2 6 -12 6.7 -12 0.2 0 0.2 0.3 0 0.8 -0.2 0.4 -1.6 3.3 -3.2 6.5 -2.7 5.6 -3.5 6.7 -3.5 4.7z"/><path d="M599 528.1 c1.6 -3.1 3.2 -3.6 1.8 -0.7 -0.6 1.4 -1.5 2.6 -2 2.6 -0.5 0 -0.4 -0.9 0.2 -1.9z"/><path d="M602 523.4 c0 -1.2 38 -57.7 48.1 -71.5 5.9 -8 13.9 -19.3 17.7 -25 6.7 -10.1 21.5 -28.5 25.7 -32.1 1.1 -1 1.6 -1.7 1.2 -1.8 -1.5 0 -15 11.2 -22.2 18.4 -11.2 11.3 -24.8 27.5 -41 49.1 -8.3 11 -18.4 24.3 -22.5 29.5 -4.1 5.3 -8.3 10.7 -9.3 12 -1 1.4 -1.5 1.9 -1.1 1.2 0.3 -0.8 0.8 -6.6 1.1 -13 0.2 -6.4 0.7 -12.4 1 -13.2 0.3 -0.8 1 -3.4 1.4 -5.7 1.2 -6 2.6 -12 3.9 -17.3 0.6 -2.5 1.4 -5.8 1.7 -7.5 0.3 -1.6 1.4 -4.4 2.4 -6.3 1.1 -1.8 1.9 -3.9 1.9 -4.7 0 -0.9 0.4 -2.3 0.9 -3.3 0.5 -0.9 2.4 -4.8 4.2 -8.7 1.8 -3.8 3.5 -7.2 3.9 -7.5 0.3 -0.3 1.6 -2.6 2.9 -5.2 1.3 -2.7 2.8 -4.8 3.3 -4.8 0.4 0 0.8 -0.6 0.8 -1.3 0 -0.7 0.8 -2.2 1.8 -3.3 0.9 -1 3.5 -4.2 5.7 -6.9 4.6 -5.8 15.5 -16.6 20.5 -20.4 1.9 -1.4 3.7 -2.8 4 -3.2 0.3 -0.3 2.5 -1.6 5 -3 2.5 -1.3 4.7 -2.6 5 -2.9 0.3 -0.3 3.7 -2 7.5 -3.9 3.9 -1.8 8.7 -4.2 10.8 -5.2 2.2 -1.1 4.7 -1.9 5.7 -1.9 1.1 0 2.2 -0.4 2.5 -1 0.3 -0.5 1.7 -1 3 -1 1.3 0 2.7 -0.4 3 -1 0.3 -0.5 1.7 -1 3 -1 1.3 0 2.6 -0.4 2.9 -0.9 0.3 -0.5 2 -1.1 3.8 -1.4 3.1 -0.5 6.1 -1.2 16.1 -3.8 2.3 -0.6 5.8 -1.2 7.7 -1.2 l3.5 -0.2 -0.1 10 c0 5.5 -0.6 14.5 -1.2 20 -0.7 5.5 -1.4 12.5 -1.7 15.5 -0.3 3 -1 6.4 -1.5 7.5 -0.5 1.1 -1.1 3.8 -1.4 6 -1 7.9 -1.8 11.5 -2.7 12.1 -0.5 0.3 -0.9 1.4 -0.9 2.5 0 1 -0.4 2.7 -0.9 3.7 -0.5 0.9 -1.4 3.1 -2.1 4.7 -0.7 1.7 -1.6 3.8 -2.1 4.7 -0.5 1 -0.9 2.5 -0.9 3.3 0 0.8 -0.3 1.5 -0.8 1.5 -0.4 0 -1.3 1.4 -2 3 -1.4 3 -10.9 18.1 -12.1 19 -0.3 0.3 -1.8 2.2 -3.3 4.2 -3.9 5.2 -19 19.8 -20.5 19.8 -0.7 0 -1.3 0.4 -1.3 0.8 0 0.4 -1.3 1.6 -3 2.5 -1.6 1 -3.5 2.3 -4.3 3 -0.7 0.7 -2.2 1.7 -3.2 2.3 -5.7 3.2 -7 3.9 -7.5 4.4 -0.3 0.3 -2.3 1.4 -4.5 2.6 -2.2 1.1 -4.9 2.5 -6 3.1 -2.1 1.1 -6.6 3 -10 4.3 -1.1 0.4 -4 1.6 -6.5 2.7 -7 3.1 -10.8 4.1 -20 5.2 -9.2 1.2 -11 2.3 -14.5 9.9 -1.5 2.9 -2.5 4.1 -2.5 2.6z"/><path d="M570 516.5 c0 -1.2 7.2 -14.7 7.5 -14.3 0.3 0.2 -1.1 3.7 -3.1 7.6 -3.2 6.5 -4.4 8.2 -4.4 6.7z"/><path d="M578 499.2 c0 -0.5 0.7 -1.7 1.5 -2.8 0.8 -1 1.5 -2.8 1.5 -3.9 0.1 -1.1 0.4 -1.5 0.7 -0.7 0.3 0.7 -0.2 2.8 -1.2 4.7 -1.5 3.4 -2.5 4.4 -2.5 2.7z"/><path d="M586.1 476.8 c0.1 -0.7 0.5 -2.4 0.9 -3.8 0.8 -2.4 0.8 -2.4 0.9 0.7 0.1 1.7 -0.3 3.5 -0.9 3.8 -0.5 0.3 -1 0 -0.9 -0.7z"/><path d="M517.5 474 c-1.1 -1.2 -8.6 -7.5 -16.6 -14.1 -43 -34.8 -55.5 -54.5 -60.5 -95.4 -1.7 -13.6 -1.5 -46.8 0.2 -48.5 0.5 -0.5 6 0.1 12.4 1.4 44.1 8.8 73 25.7 87.8 51.4 9 15.5 12.5 28.4 12.6 46.7 0.1 17.6 -3.4 34.7 -10.1 49.4 l-2.5 5.6 -1.8 -8 c-4.6 -20.1 -16.5 -47.2 -27.1 -61.5 -6.3 -8.5 -25.8 -29.4 -26.7 -28.6 -0.2 0.3 0.9 2.2 2.5 4.3 11.8 15.3 23.1 41.5 28.1 65.3 2.2 10.1 4.7 31 4 33 -0.2 0.7 -1.1 0.3 -2.3 -1z"/><path d="M592.1 453 c0.1 -0.8 0.5 -2.6 0.9 -4 l0.8 -2.5 0.1 2.5 c0 1.4 -0.4 3.2 -0.9 4 -0.9 1.3 -1 1.3 -0.9 0z"/><path d="M594.6 443.3 c0.9 -3.8 1.4 -4.2 1.4 -1 0 1.4 -0.5 2.9 -1 3.2 -0.7 0.4 -0.8 -0.3 -0.4 -2.2z"/><path d="M601.1 424.1 c-0.1 -0.8 0.7 -3.3 1.7 -5.5 1.1 -2.3 2.4 -5.4 3.1 -7 0.6 -1.6 1.4 -2.6 1.7 -2.3 0.3 0.3 0.1 1.3 -0.4 2.4 -1.1 1.9 -3.5 7.3 -5.1 11.4 -0.5 1.3 -1 1.8 -1 1z"/><path d="M613.5 397.3 c3.7 -5.8 10.6 -15.2 11.5 -15.8 0.5 -0.3 -1.7 3.1 -5 7.7 -3.3 4.6 -6 8.9 -6 9.6 0 0.6 -0.5 1.2 -1.1 1.2 -0.7 0 -0.4 -1.1 0.6 -2.7z"/><path d="M630.3 327.5 c0 -32.4 0.2 -43.8 0.9 -38.5 0.5 4.5 0.5 23 0 46 l-0.9 38.5 0 -46z"/></g></g></svg>